<?xml version="1.0" encoding="utf-8"?>
<!-- Generator: Adobe Illustrator 25.0.0, SVG Export Plug-In . SVG Version: 6.00 Build 0)  -->
<svg version="1.1" id="Camada_1" xmlns="http://www.w3.org/2000/svg" xmlns:xlink="http://www.w3.org/1999/xlink" x="0px" y="0px"
	 viewBox="0 0 100 100" style="enable-background:new 0 0 100 100;" xml:space="preserve">
<path d="M69.3,19.84c-6.28-5.85-15.75-8.94-29.05-8.94c-6.61,0-12.7,0.52-17.97,1.24c-0.98,0.14-1.71,0.99-1.71,1.98v67.01
	c0,1.03,0.78,1.89,1.81,1.99c4.28,0.42,9.24,0.66,15,0.66c13.94,0,25-3.62,31.71-10.32c6.7-6.6,10.32-16.17,10.32-27.88
	C79.41,33.99,75.68,25.69,69.3,19.84z M57.48,63.16L31.89,78.85v-10.1L45,61.22l-11.98-6.91c-0.7-0.41-1.14-1.16-1.14-1.97v-8.7
	l25.59,15.65C58.93,60.17,58.93,62.28,57.48,63.16z M60.65,30.67l-13.11,7.57l11.97,6.87c0.71,0.41,1.14,1.16,1.14,1.97v8.79
	L35.05,40.18c-1.45-0.89-1.45-2.99,0-3.88l25.59-15.65V30.67z"/>
</svg>
